PathFileType	4	(X/Y/Z)	10_2_97_p1_0-306_filt_butterworth.trc
DataRate	CameraRate	NumFrames	NumMarkers	Units	OrigDataRate	OrigDataStartFrame	OrigNumFrames
58.0	58.0	5	27	m	58.0	76	306
Frame#	Time	RHip			RKnee			RAnkle			RBigToe			RSmallToe			RHeel			LHip			LKnee			LAnkle			LBigToe			LSmallToe			LHeel			Neck			Head			Nose			RShoulder			RElbow			RWrist			RThumb			RIndex			RPinky			LShoulder			LElbow			LWrist			LThumb			LIndex			LPinky			
		X1	Y1	Z1	X2	Y2	Z2	X3	Y3	Z3	X4	Y4	Z4	X5	Y5	Z5	X6	Y6	Z6	X7	Y7	Z7	X8	Y8	Z8	X9	Y9	Z9	X10	Y10	Z10	X11	Y11	Z11	X12	Y12	Z12	X13	Y13	Z13	X14	Y14	Z14	X15	Y15	Z15	X16	Y16	Z16	X17	Y17	Z17	X18	Y18	Z18	X19	Y19	Z19	X20	Y20	Z20	X21	Y21	Z21	X22	Y22	Z22	X23	Y23	Z23	X24	Y24	Z24	X25	Y25	Z25	X26	Y26	Z26	X27	Y27	Z27	
76	1.3103448275862069	0.3242875198703156	0.811911254115386	0.6729407151935192	0.31147474777247647	0.3428571932805333	0.7494082470628767	0.30709828067076295	-0.0867951609912434	0.8091778419188813	0.27891043504774315	-0.11525486312397124	0.5994571905896489	0.34542080041990353	-0.1266805479744368	0.6643010324117221	0.27477353147604	-0.16717594470095729	0.8761640736933661	0.1035128021511525	0.7910568644524847	0.6951023561384385	0.08046556683506516	0.36204947475023913	0.7291710269132158	0.08367527257035651	-0.0455454808817459	0.742077119636419	0.12614670258700086	-0.1125096863994233	0.5819514367553852	0.055338325965398345	-0.08827893721722069	0.6045553617428929	0.10492164795682228	-0.1300564587886256	0.842231770344219	0.20876501365000064	1.3382546695870372	0.6647976599678769	0.20783811051894693	1.5848153115481738	0.6276033558094838	0.19778628620739785	1.4640230031893087	0.5643960554130403	0.3760531151982554	1.2147306224411838	0.6977161059991688	0.4133421871761813	0.9279334826782379	0.7244123722997432	0.3693668498099889	0.7167275998372457	0.602746160220489	0.31749455542527905	0.6276137780061554	0.5419025691449422	0.3335801346912255	0.6207639714209949	0.5406421901678276	0.36099600854159275	0.6005310140045873	0.6106810120218995	0.05566271236724456	1.2289299704810708	0.6927132964843036	-0.0036244544833338	0.9319515814212129	0.7161700562700754	0.022536101804362968	0.7232535555517111	0.5862028667406511	0.08933052455869361	0.6547409913536708	0.5178129128829843	0.0778704619454133	0.5958309480256848	0.5214282056670765	0.04361937094483162	0.5731753223722822	0.5827559480097957	
77	1.3275862068965518	0.32456488373691117	0.8118512250685157	0.6724377624140074	0.31180287451326816	0.3434807434602972	0.7487275456033761	0.30720342052479344	-0.08698742037031493	0.809351735312082	0.27890357915892394	-0.11524468909513415	0.5994324266665199	0.3454493849619168	-0.1267095876149114	0.6643511953409685	0.27470360011979067	-0.1667434206139727	0.875991054676178	0.10346753548220475	0.791155400891131	0.6954934483917997	0.08083939120429828	0.3618156356824024	0.7292431199852188	0.08379365893382511	-0.04545972219967585	0.7421522116407469	0.1261016327736154	-0.11173685897547227	0.5819294224217211	0.055127695933394776	-0.0876128805349281	0.6042755602875095	0.10478112813814947	-0.12979378324403548	0.8425381163280666	0.2088544009499163	1.3380628181186804	0.6645554763745296	0.20782514323667883	1.5853275837330212	0.6274150713198083	0.1968986117077467	1.4640195755211927	0.5641487642439174	0.3754578744527556	1.2150748565861147	0.695470715350597	0.41279474954773543	0.928111752554935	0.7253343049591634	0.3680049530037057	0.7175613478747465	0.6027159895630663	0.3157222964739911	0.6285871031495229	0.5390483925841001	0.33226160722300324	0.6216703608973628	0.5382619842136339	0.35991784284147155	0.5998942406610583	0.6114645938655041	0.055568889858697214	1.228936354447848	0.6926414889715643	-0.002454229816892111	0.9324746956064783	0.7138863685508788	0.02312565909186524	0.7229416479004975	0.5864764939085825	0.08923550175539706	0.6541312751354094	0.5179022964809319	0.07789278806077471	0.594596858894517	0.5216935627595145	0.04374355994900648	0.5723972714936245	0.5831188395321703	
78	1.3448275862068966	0.3247238858453985	0.8117106939298578	0.6722675564349203	0.31219888496911796	0.34404072387489804	0.7479110665132012	0.3072981839816567	-0.08703038912547144	0.8094252615889169	0.2789093864440909	-0.11526657480070789	0.5994511708385233	0.34564256278091954	-0.12703950972633526	0.664522629878015	0.27460000409921154	-0.16635818732259727	0.8757106286585926	0.10345594484991473	0.7913127511881393	0.6957828965392728	0.08113780324961913	0.36153037126823206	0.7292397348874294	0.0838148124770637	-0.04527918177874678	0.74208870696458	0.12602778102999604	-0.1111794978974806	0.5817848874362661	0.055229677225357834	-0.08748385907418763	0.6040789662117126	0.10467834969558167	-0.1295504397708998	0.8426437817098056	0.20901629872409133	1.337775741324397	0.6641227842488573	0.20781131730884742	1.5859678672299404	0.6271883399105644	0.19600420094235232	1.4640351542490615	0.5635084092328844	0.3749913311518589	1.2153441169725145	0.6937163611226901	0.41229060337733203	0.9288479910586507	0.724841952048118	0.3673194128292976	0.7181227318353661	0.6026941202842334	0.314497085368814	0.6292863920846505	0.5369794511788847	0.3315533686575638	0.6219329069036107	0.5372552227182028	0.35924767378755385	0.5996192173556856	0.6115988956562506	0.05546065099402043	1.2289493217598917	0.6926180441630507	-0.0011826925008100822	0.9331011603271104	0.711301008192994	0.02343193084547365	0.7227991798431415	0.5864695679840899	0.08915115136675979	0.6538297224698398	0.5179609862658336	0.07789247932824822	0.5936441353203672	0.5218063764676525	0.04380394386756371	0.5722009454275416	0.5831957739590985	
79	1.362068965517241	0.324768351544397	0.8115419695286639	0.6723721633051438	0.31263279004959077	0.34450728288162524	0.7468984386940816	0.30741556242649737	-0.08689241195982653	0.8093677058559798	0.2789239655261263	-0.11530933269027194	0.5994970513399801	0.34595576840734693	-0.12764768532749676	0.6647352904222842	0.27447967057333533	-0.16596418334681995	0.8753273599828847	0.10343939870273455	0.7915572157461642	0.6959876861976221	0.08135995852522893	0.361244896508026	0.7291966226455235	0.08373316888118897	-0.04499040673476987	0.7418822190293466	0.12593928361668724	-0.11084710802463806	0.581458381385309	0.05556304287329636	-0.08779008754695157	0.6040589438097992	0.10459714631524171	-0.12932129130163067	0.8425236434981428	0.20915195729742933	1.3373630971917496	0.6637440714549281	0.20779262657940045	1.5866562612142547	0.626955259451663	0.1952882710074903	1.4640953402734194	0.5622579210179519	0.37472276482689537	1.2154967802653782	0.6927179736384144	0.4117736846860588	0.929947418942767	0.7229274990505385	0.3671397079845413	0.7182243757484468	0.6025879840136142	0.3138453197583152	0.6296366116651881	0.5359163338103918	0.33152048489083175	0.6215654155455137	0.5372973927387836	0.3590220729622606	0.5996460905615616	0.6114201197666081	0.05540453800530261	1.2289670877813421	0.6926300338363167	5.0217691744614494e-05	0.9338754818566528	0.708715035549775	0.02345082200773605	0.7227277501439793	0.5862468189930841	0.08908941919975003	0.6538324107264702	0.5180169954092085	0.07787534000624505	0.5930480974769292	0.521847846345432	0.043820961163093086	0.5722981729093264	0.5831323667354306	
80	1.3793103448275863	0.3247265028393199	0.8113868231872196	0.6726536190618151	0.3131182764640147	0.3449482327709199	0.7456189638330561	0.30754403605051606	-0.08656554791733409	0.8091758519498369	0.27894141128034067	-0.11534408732361953	0.5995345394121049	0.34636302892689086	-0.12855638725172208	0.6653339970599589	0.2743465484002956	-0.16545390957872605	0.8748362144181681	0.10333296769244892	0.7918484998884671	0.6961512850091617	0.08150979483055193	0.3609599456781039	0.729134869324801	0.08354523899742851	-0.04458770013643801	0.7415338835776083	0.12586119215724484	-0.11079778168889327	0.5811503230674362	0.056119425747096	-0.0884199586180632	0.6042064304827319	0.10445773620960508	-0.12907518129612203	0.8421072153700573	0.20907789172415142	1.33682563705676	0.6638802787901599	0.20777293610618452	1.5873045516399138	0.6267556741111351	0.19494643848651494	1.4641978694311852	0.5604969197519132	0.37465992058181136	1.215528630470371	0.6925010609673823	0.4112911204517743	0.9310896612534459	0.7197573135148889	0.36727570511492935	0.7178685858314214	0.6023810369917517	0.31370614001045716	0.6296966550652044	0.5357685252231081	0.33205097447550136	0.6207782747419044	0.5378222864396041	0.35909397061094195	0.5997262363229237	0.6113665643832678	0.05539004928875259	1.2289838015661774	0.6926714890939774	0.0010926639910251042	0.9348135314645943	0.7065267433838244	0.023288467020506097	0.7227471662600917	0.5859530780769882	0.08904112943650125	0.6539249803473752	0.5180871493198778	0.07785964573560603	0.5928930145782101	0.5218494328234335	0.04380923590377624	0.5724605217139696	0.5830685055149849	
